<?xml version="1.0" standalone="no"?>
<!DOCTYPE svg PUBLIC "-//W3C//DTD SVG 20010904//EN"
 "http://www.w3.org/TR/2001/REC-SVG-20010904/DTD/svg10.dtd">
<svg version="1.0" xmlns="http://www.w3.org/2000/svg"
 width="704.000000pt" height="704.000000pt" viewBox="0 0 704.000000 704.000000"
 preserveAspectRatio="xMidYMid meet">
<metadata>
Created by potrace 1.14, written by Peter Selinger 2001-2017
</metadata>
<g transform="translate(0.000000,704.000000) scale(0.100000,-0.100000)"
fill="#000000" stroke="none">
<path d="M576 6713 c-1 -1 -13 -4 -26 -7 -86 -17 -238 -89 -248 -117 -2 -5
-10 -9 -17 -9 -18 0 -100 -95 -136 -157 -42 -73 -78 -178 -85 -248 -3 -33 -7
-72 -8 -86 -5 -48 15 -163 40 -234 21 -61 85 -180 104 -195 4 -3 43 -54 88
-115 45 -60 85 -114 90 -120 4 -5 39 -53 77 -105 39 -52 120 -161 180 -242 61
-81 157 -211 215 -289 58 -78 111 -148 118 -155 6 -7 12 -15 12 -18 0 -4 117
-163 177 -241 5 -5 53 -71 108 -145 55 -74 103 -139 108 -145 43 -57 109 -147
192 -260 123 -168 124 -169 157 -208 15 -18 28 -38 28 -44 0 -7 3 -13 8 -13 4
0 13 -9 20 -20 13 -21 4 -41 -45 -100 -7 -8 -47 -62 -90 -120 -42 -58 -137
-185 -210 -283 -73 -98 -133 -183 -133 -188 0 -5 -3 -9 -7 -9 -5 0 -23 -23
-42 -50 -19 -28 -38 -50 -43 -50 -4 0 -8 -7 -8 -15 0 -8 -4 -15 -10 -15 -5 0
-10 -4 -10 -10 0 -9 -14 -28 -45 -64 -6 -6 -21 -28 -35 -48 -14 -21 -28 -38
-32 -38 -5 0 -8 -4 -8 -9 0 -5 -44 -68 -97 -139 -54 -72 -107 -143 -118 -158
-11 -15 -26 -33 -32 -40 -7 -7 -13 -15 -13 -18 0 -3 -7 -14 -15 -23 -8 -10
-42 -56 -77 -103 -34 -47 -68 -91 -75 -98 -7 -7 -13 -17 -13 -20 0 -4 -10 -18
-23 -32 -12 -14 -31 -38 -41 -55 -11 -16 -23 -34 -28 -40 -67 -76 -377 -508
-403 -560 -123 -251 -74 -566 116 -758 27 -26 53 -47 58 -47 6 0 11 -4 11 -9
0 -11 150 -89 183 -95 12 -2 42 -9 67 -15 64 -15 225 -7 285 14 145 50 237
116 326 233 35 47 70 91 77 98 6 7 12 15 12 18 0 3 8 15 18 25 9 11 33 41 52
68 19 26 37 50 40 53 6 5 103 131 135 176 11 15 25 32 30 38 10 11 62 80 100
132 11 15 25 32 30 38 6 6 30 38 54 71 25 33 57 76 73 95 16 19 32 40 36 45
48 64 228 301 232 305 3 3 48 61 100 130 52 69 112 148 134 176 23 28 50 64
60 78 11 15 27 36 35 47 37 46 116 148 233 304 37 50 74 97 81 105 8 8 39 49
70 90 31 41 79 104 107 140 28 36 58 76 68 90 9 14 19 27 22 30 4 3 34 42 69
88 34 45 80 102 103 125 32 34 77 102 83 127 1 3 7 18 13 33 22 54 32 114 33
198 0 97 -36 239 -75 294 -11 17 -20 32 -18 35 3 6 -73 111 -105 145 -13 13
-23 28 -23 34 0 5 -3 11 -7 13 -5 2 -28 30 -53 63 -25 33 -47 62 -50 65 -3 3
-48 61 -100 130 -52 69 -100 132 -107 140 -7 8 -39 51 -72 95 -33 44 -73 95
-88 114 -15 18 -32 41 -37 50 -5 9 -12 18 -15 21 -3 3 -19 23 -36 45 -16 22
-31 42 -34 45 -4 3 -49 61 -101 130 -52 69 -99 130 -105 137 -14 17 -19 23
-110 143 -43 58 -83 110 -87 115 -39 50 -68 87 -153 200 -112 147 -100 131
-160 207 -25 31 -45 61 -45 66 0 6 -4 12 -8 14 -5 2 -38 41 -73 88 -35 47 -66
87 -70 90 -4 4 -70 90 -141 185 -4 6 -21 26 -38 46 -16 20 -30 42 -30 48 0 6
-3 11 -7 11 -5 0 -33 34 -63 75 -30 41 -58 75 -62 75 -4 0 -8 5 -8 11 0 22
-113 140 -169 178 -117 78 -237 113 -370 109 -40 -2 -74 -4 -75 -5z"/>
<path d="M6231 6699 c-64 -16 -112 -38 -201 -90 -35 -20 -107 -95 -160 -164
-25 -33 -47 -62 -50 -65 -3 -3 -48 -61 -100 -130 -52 -69 -100 -132 -107 -140
-7 -8 -39 -51 -72 -95 -73 -98 -92 -123 -108 -140 -7 -8 -13 -18 -13 -24 0 -6
-3 -11 -8 -11 -4 0 -28 -28 -52 -62 -25 -34 -50 -66 -55 -72 -6 -6 -22 -27
-35 -46 -14 -19 -32 -44 -42 -55 -9 -11 -80 -103 -157 -205 -78 -102 -147
-192 -154 -200 -7 -9 -33 -42 -57 -75 -25 -33 -49 -65 -55 -71 -5 -7 -18 -22
-27 -35 -37 -52 -138 -185 -151 -199 -7 -8 -27 -33 -43 -55 -16 -22 -31 -42
-34 -45 -3 -3 -45 -57 -93 -121 -48 -63 -96 -125 -107 -137 -11 -12 -20 -25
-20 -29 0 -5 -10 -19 -22 -33 -13 -14 -43 -52 -68 -85 -54 -72 -71 -93 -87
-110 -7 -8 -13 -16 -13 -19 0 -3 -9 -16 -19 -28 -11 -13 -62 -79 -115 -148
-52 -69 -99 -130 -105 -136 -5 -6 -17 -26 -26 -45 -10 -19 -21 -36 -25 -39
-20 -15 -62 -182 -65 -260 -7 -174 39 -297 158 -423 18 -19 70 -84 117 -146
47 -62 119 -156 160 -210 41 -54 86 -113 100 -131 41 -55 179 -234 188 -245 4
-5 57 -75 117 -155 61 -79 115 -150 120 -156 6 -7 34 -43 62 -80 29 -38 112
-145 183 -239 72 -93 139 -181 148 -194 9 -13 25 -32 35 -43 9 -10 17 -22 17
-27 0 -5 3 -11 8 -13 4 -1 24 -25 44 -53 21 -27 41 -54 46 -60 4 -5 33 -44 65
-85 32 -41 67 -86 77 -100 11 -14 74 -97 141 -185 66 -88 127 -165 135 -171 8
-6 14 -15 14 -19 0 -9 71 -98 82 -103 5 -2 8 -10 8 -17 0 -8 8 -20 18 -27 11
-7 21 -18 23 -24 11 -30 106 -136 162 -181 42 -34 152 -85 218 -102 53 -14 99
-19 164 -16 108 3 131 8 215 42 61 24 197 112 212 137 3 6 20 26 37 45 39 43
95 159 117 241 11 43 17 103 18 175 0 94 -4 122 -28 195 -39 117 -54 141 -226
370 -11 14 -101 135 -201 270 -181 245 -272 366 -287 385 -16 21 -209 282
-247 335 -21 30 -45 62 -52 70 -8 8 -90 119 -184 245 -93 127 -175 237 -182
245 -7 9 -27 36 -44 60 -17 25 -40 56 -52 69 -12 13 -21 27 -21 31 0 3 -8 15
-17 26 -39 44 -83 103 -83 113 0 5 -3 11 -8 13 -4 2 -29 31 -54 65 l-47 62 37
50 c20 27 46 62 57 77 11 15 31 42 45 60 14 18 68 90 120 161 52 70 98 133
103 138 4 6 70 96 147 200 77 105 148 199 158 211 9 11 31 40 47 65 17 24 35
49 40 55 6 6 31 39 55 74 25 34 52 70 61 80 9 10 18 21 20 26 7 16 213 289
224 296 5 4 6 8 2 8 -5 0 -2 6 5 13 7 8 29 35 48 61 19 25 46 62 60 80 50 65
70 93 141 191 40 55 76 102 79 105 3 3 33 43 67 90 34 47 71 95 82 107 12 12
21 25 21 29 0 3 9 18 19 32 30 42 71 151 85 224 16 78 14 215 -4 278 -7 25
-13 50 -15 55 -17 74 -118 241 -161 268 -7 4 -19 13 -26 20 -21 21 -100 71
-143 91 -117 55 -273 69 -404 35z"/>
</g>
</svg>
