<svg width="22" height="20" viewBox="0 0 22 20" fill="none" xmlns="http://www.w3.org/2000/svg">
<path d="M9.69984 8.70049L3.49986 0.600488C3.09986 0.200488 2.59986 0.000488281 2.09986 0.000488281C1.59986 0.000488281 1.09986 0.200488 0.699864 0.600488C-0.000133812 1.40049 -0.000133812 2.60049 0.699864 3.40049L5.59985 10.0005L0.699864 16.6005C-0.000133812 17.4005 -0.000133812 18.6005 0.699864 19.4005C1.09986 19.8005 1.59986 20.0005 2.09986 20.0005C2.59986 20.0005 3.09986 19.8005 3.49986 19.4005L9.69984 11.3005C10.3998 10.7005 10.3998 9.50049 9.69984 8.70049Z" fill="#7772F1"/>
<path d="M12.3427 8.70049L18.5427 0.600488C18.9427 0.200488 19.4427 0.000488281 19.9427 0.000488281C20.4427 0.000488281 20.9427 0.200488 21.3427 0.600488C22.0427 1.40049 22.0427 2.60049 21.3427 3.40049L16.4427 10.0005L21.3427 16.6005C22.0427 17.4005 22.0427 18.6005 21.3427 19.4005C20.9427 19.8005 20.4427 20.0005 19.9427 20.0005C19.4427 20.0005 18.9427 19.8005 18.5427 19.4005L12.3427 11.3005C11.6427 10.7005 11.6427 9.50049 12.3427 8.70049Z" fill="#7772F1"/>
</svg>
