<?xml version="1.0" encoding="utf-8"?><svg viewBox="0 0 12 14" xmlns="http://www.w3.org/2000/svg" xmlns:xlink="http://www.w3.org/1999/xlink"><style>:root>svg{display:none}:root>svg:target{display:block}</style><svg viewBox="0 0 11 14" id="triangle-fill" xmlns="http://www.w3.org/2000/svg"><path d="M10.5 6.134a1 1 0 0 1 0 1.732l-9 5.196a1 1 0 0 1-1.5-.866V1.804A1 1 0 0 1 1.5.938l9 5.196Z"/></svg><svg viewBox="0 0 12 7" id="triangle-stroke" xmlns="http://www.w3.org/2000/svg"><path fill-rule="evenodd" clip-rule="evenodd" d="M11.138.529c.26.26.26.682 0 .943L6.471 6.138a.667.667 0 0 1-.942 0L.862 1.472a.667.667 0 0 1 .943-.943L6 4.724 10.195.529c.26-.26.683-.26.943 0Z"/></svg></svg>