<?xml version="1.0" encoding="utf-8"?><svg viewBox="0 0 22 22" xmlns="http://www.w3.org/2000/svg" xmlns:xlink="http://www.w3.org/1999/xlink"><style>:root>svg{display:none}:root>svg:target{display:block}</style><svg viewBox="0 0 12 8" id="arrow" xmlns="http://www.w3.org/2000/svg"><path fill-rule="evenodd" clip-rule="evenodd" d="M7.862.529c.26-.26.682-.26.943 0l3 3c.26.26.26.682 0 .943l-3 3a.667.667 0 1 1-.943-.943l1.862-1.862H.667a.667.667 0 0 1 0-1.333h9.057L7.862 1.471a.667.667 0 0 1 0-.943Z"/></svg><svg viewBox="0 0 12 22" id="fb" xmlns="http://www.w3.org/2000/svg"><path d="M11.563.005 8.786 0c-3.12 0-5.137 2.125-5.137 5.414v2.497H.857c-.242 0-.437.2-.437.448v3.617c0 .248.196.449.437.449h2.792v9.126c0 .248.195.449.437.449h3.643a.443.443 0 0 0 .437-.449v-9.126h3.265c.241 0 .437-.2.437-.449V8.36a.455.455 0 0 0-.127-.317.43.43 0 0 0-.31-.131H8.167V5.794c0-1.017.236-1.533 1.526-1.533h1.87a.444.444 0 0 0 .437-.45V.454a.443.443 0 0 0-.436-.448Z"/></svg><svg viewBox="0 0 20 20" id="in" xmlns="http://www.w3.org/2000/svg"><path d="M19.995 20H20v-7.336c0-3.588-.773-6.352-4.967-6.352-2.017 0-3.37 1.106-3.923 2.155h-.058v-1.82H7.074v13.352h4.142v-6.611c0-1.741.33-3.425 2.486-3.425 2.124 0 2.155 1.987 2.155 3.536V20h4.138ZM.33 6.647h4.147V20H.33V6.648ZM2.402 0A2.402 2.402 0 0 0 0 2.402c0 1.325 1.076 2.424 2.402 2.424 1.325 0 2.401-1.098 2.401-2.424A2.403 2.403 0 0 0 2.402 0Z"/></svg><svg viewBox="0 0 21 20" id="inst" xmlns="http://www.w3.org/2000/svg"><path d="M19.98 5.88c-.047-1.063-.218-1.793-.465-2.426A4.88 4.88 0 0 0 18.36 1.68 4.922 4.922 0 0 0 16.59.527C15.952.281 15.226.11 14.163.063 13.093.012 12.753 0 10.037 0 7.322 0 6.982.012 5.915.059 4.852.105 4.122.277 3.49.523A4.88 4.88 0 0 0 1.715 1.68 4.924 4.924 0 0 0 .563 3.45C.316 4.087.145 4.813.098 5.876c-.051 1.07-.063 1.41-.063 4.126 0 2.715.012 3.055.059 4.122.047 1.063.219 1.793.465 2.426a4.932 4.932 0 0 0 1.156 1.774 4.92 4.92 0 0 0 1.77 1.152c.637.247 1.364.419 2.426.465 1.067.047 1.407.059 4.122.059 2.716 0 3.056-.012 4.122-.059 1.063-.046 1.793-.218 2.426-.464a5.116 5.116 0 0 0 2.927-2.927c.246-.637.418-1.364.465-2.426.047-1.067.058-1.407.058-4.122s-.004-3.055-.05-4.122Zm-1.8 8.166c-.044.977-.208 1.504-.345 1.856a3.318 3.318 0 0 1-1.898 1.898c-.352.137-.883.301-1.856.344-1.055.047-1.371.059-4.04.059-2.668 0-2.989-.012-4.04-.059-.977-.043-1.504-.207-1.856-.344a3.077 3.077 0 0 1-1.148-.746 3.11 3.11 0 0 1-.747-1.148c-.136-.352-.3-.883-.343-1.856-.047-1.055-.059-1.372-.059-4.04 0-2.669.012-2.99.059-4.04.043-.977.207-1.504.343-1.856A3.04 3.04 0 0 1 3 2.965a3.105 3.105 0 0 1 1.15-.746c.35-.137.882-.3 1.855-.344 1.055-.046 1.371-.058 4.04-.058 2.672 0 2.989.012 4.04.058.976.043 1.504.207 1.856.344.433.16.828.414 1.148.746.332.325.586.715.747 1.15.136.35.3.882.343 1.855.047 1.055.059 1.371.059 4.04 0 2.668-.012 2.98-.059 4.036Z"/><path d="M10.037 4.864A5.139 5.139 0 0 0 4.9 10.002a5.139 5.139 0 1 0 5.138-5.138Zm0 8.47a3.333 3.333 0 1 1 .001-6.666 3.333 3.333 0 0 1 0 6.667Zm6.541-8.673a1.2 1.2 0 1 1-2.4 0 1.2 1.2 0 0 1 2.4 0Z"/></svg><svg viewBox="0 0 16 12" id="mail" xmlns="http://www.w3.org/2000/svg"><path fill-rule="evenodd" clip-rule="evenodd" d="M15.167 10V2.667a2 2 0 0 0-2-2H2.833a2 2 0 0 0-2 2V10a2 2 0 0 0 2 2h10.334a2 2 0 0 0 2-2Zm-1.334-5.827V10a.667.667 0 0 1-.666.666H2.833A.667.667 0 0 1 2.167 10V4.173l4.708 3.202a2 2 0 0 0 2.25 0l4.708-3.202Zm-.007-1.607a.667.667 0 0 0-.66-.566H2.834a.667.667 0 0 0-.659.566l5.451 3.706a.667.667 0 0 0 .75 0l5.45-3.706Z"/></svg><svg viewBox="0 0 10 16" id="tel" xmlns="http://www.w3.org/2000/svg"><path fill-rule="evenodd" clip-rule="evenodd" d="M2.667 1.948a1 1 0 0 0-1 1v10.104a1 1 0 0 0 1 1h4.666a1 1 0 0 0 1-1V2.948a1 1 0 0 0-1-1h-.055l-.163.39a.667.667 0 0 1-.615.41h-3a.667.667 0 0 1-.615-.41l-.163-.39h-.055Zm-2.334 1A2.333 2.333 0 0 1 2.667.615h4.666a2.333 2.333 0 0 1 2.334 2.333v10.104a2.333 2.333 0 0 1-2.334 2.334H2.667a2.333 2.333 0 0 1-2.334-2.334V2.948Z"/></svg><svg viewBox="0 0 11 14" id="triangle-fill" xmlns="http://www.w3.org/2000/svg"><path d="M10.5 6.134a1 1 0 0 1 0 1.732l-9 5.196a1 1 0 0 1-1.5-.866V1.804A1 1 0 0 1 1.5.938l9 5.196Z"/></svg><svg viewBox="0 0 12 7" id="triangle-stroke" xmlns="http://www.w3.org/2000/svg"><path fill-rule="evenodd" clip-rule="evenodd" d="M11.138.529c.26.26.26.682 0 .943L6.471 6.138a.667.667 0 0 1-.942 0L.862 1.472a.667.667 0 0 1 .943-.943L6 4.724 10.195.529c.26-.26.683-.26.943 0Z"/></svg><svg viewBox="0 0 22 18" id="tw" xmlns="http://www.w3.org/2000/svg"><path d="M21.5 2.772a8.902 8.902 0 0 1-2.474.65 4.18 4.18 0 0 0 1.894-2.28 8.922 8.922 0 0 1-2.737 1A4.387 4.387 0 0 0 15.038.84c-2.379 0-4.308 1.847-4.308 4.124 0 .323.038.638.112.94-3.58-.173-6.754-1.815-8.879-4.31a3.962 3.962 0 0 0-.583 2.073c0 1.431.762 2.694 1.916 3.433a4.455 4.455 0 0 1-1.95-.518v.052c0 1.997 1.485 3.665 3.454 4.044-.36.093-.741.145-1.135.145a4.31 4.31 0 0 1-.81-.077c.548 1.64 2.138 2.832 4.023 2.865a8.89 8.89 0 0 1-5.35 1.763c-.348 0-.69-.02-1.028-.057a12.572 12.572 0 0 0 6.603 1.856c7.925 0 12.257-6.285 12.257-11.736l-.015-.534a8.412 8.412 0 0 0 2.155-2.13Z"/></svg></svg>